<?xml version="1.0" encoding="utf-8"?>
<!-- Generator: Adobe Illustrator 19.1.0, SVG Export Plug-In . SVG Version: 6.00 Build 0)  -->
<svg version="1.1" id="Layer_1" xmlns="http://www.w3.org/2000/svg" xmlns:xlink="http://www.w3.org/1999/xlink" x="0px" y="0px"
	 viewBox="0 0 221.5 80" style="enable-background:new 0 0 221.5 80;" xml:space="preserve">
<style type="text/css">
	.st0{fill:#FFFFFF;}
</style>
<g id="XMLID_117_">
	<g id="XMLID_77_">
		<path id="XMLID_78_" class="st0" d="M6.8,64.4v1.6H2.9v1.8h3.7v1.6H2.9v3.3H1v-8.4H6.8z"/>
		<path id="XMLID_80_" class="st0" d="M14.4,72.8L13.6,71h-3.5l-0.8,1.8h-2l3.6-8.4h1.8l3.6,8.4H14.4z M11.8,66.9l-1.1,2.4h2.1
			L11.8,66.9z"/>
		<path id="XMLID_134_" class="st0" d="M17.8,64.4h1.9v8.4h-1.9V64.4z"/>
		<path id="XMLID_136_" class="st0" d="M25.8,66.1v6.8h-1.9v-6.8h-2.4v-1.6h6.6v1.6H25.8z"/>
		<path id="XMLID_167_" class="st0" d="M35.2,64.4h1.9v8.4h-1.9v-3.3h-3.3v3.3H30v-8.4h1.9v3.5h3.3V64.4z"/>
		<path id="XMLID_169_" class="st0" d="M48.1,72.1c-0.7,0.5-1.4,0.8-2.3,0.8s-1.6-0.2-2.2-0.7c-0.6-0.5-0.9-1.1-0.9-1.9
			c0-0.9,0.6-1.7,1.8-2.3c-0.3-0.3-0.5-0.6-0.6-0.8c-0.1-0.2-0.2-0.5-0.2-0.9c0-0.7,0.2-1.2,0.7-1.6c0.5-0.4,1.1-0.5,1.7-0.5
			c0.7,0,1.2,0.2,1.7,0.5s0.7,0.8,0.7,1.5c0,0.8-0.6,1.5-1.7,2.2c0.4,0.6,0.8,1,1,1.2c0.2-0.4,0.4-0.8,0.5-1.2l1.4,1
			c-0.2,0.5-0.4,1-0.7,1.4l1.2,1.2l-1.2,1.1L48.1,72.1z M44.9,71.1c0.2,0.2,0.5,0.3,0.9,0.3c0.4,0,0.8-0.2,1.2-0.5
			c-0.6-0.6-1.1-1.2-1.5-1.7c-0.6,0.4-0.9,0.8-0.9,1.2C44.6,70.7,44.7,71,44.9,71.1z M46.3,65.7c-0.2,0-0.3,0.1-0.5,0.2
			c-0.1,0.1-0.2,0.3-0.2,0.5s0.2,0.5,0.5,0.9c0.6-0.3,0.9-0.6,0.9-0.9c0-0.2-0.1-0.4-0.2-0.5C46.6,65.7,46.4,65.7,46.3,65.7z"/>
		<path id="XMLID_173_" class="st0" d="M57.7,66.1c-0.2,0.1-0.3,0.3-0.3,0.6s0.1,0.4,0.3,0.6c0.2,0.1,0.7,0.3,1.5,0.5
			c0.8,0.2,1.4,0.5,1.9,0.9c0.4,0.4,0.7,1,0.7,1.7s-0.3,1.4-0.8,1.8s-1.3,0.7-2.2,0.7c-1.3,0-2.5-0.5-3.6-1.5l1.1-1.4
			c0.9,0.8,1.7,1.2,2.5,1.2c0.3,0,0.6-0.1,0.8-0.2c0.2-0.1,0.3-0.3,0.3-0.6c0-0.3-0.1-0.5-0.3-0.6s-0.6-0.3-1.2-0.4
			c-1-0.2-1.7-0.5-2.1-0.9c-0.5-0.4-0.7-1-0.7-1.8s0.3-1.4,0.9-1.8s1.3-0.6,2.1-0.6c0.6,0,1.1,0.1,1.7,0.3c0.6,0.2,1,0.5,1.5,0.8
			l-0.9,1.4c-0.7-0.6-1.5-0.8-2.3-0.8C58.2,65.9,57.9,66,57.7,66.1z"/>
		<path id="XMLID_175_" class="st0" d="M67.7,71.2c0.9,0,1.7-0.4,2.3-1.1l1.2,1.2c-1,1.1-2.1,1.6-3.4,1.6c-1.3,0-2.4-0.4-3.2-1.2
			c-0.8-0.8-1.3-1.8-1.3-3.1c0-1.2,0.4-2.3,1.3-3.1s1.9-1.2,3.1-1.2c1.4,0,2.5,0.5,3.5,1.6l-1.2,1.3c-0.6-0.7-1.3-1.1-2.2-1.1
			c-0.7,0-1.3,0.2-1.8,0.7c-0.5,0.5-0.8,1.1-0.8,1.9s0.2,1.4,0.7,1.9C66.5,70.9,67.1,71.2,67.7,71.2z"/>
		<path id="XMLID_177_" class="st0" d="M73.2,64.4H75v8.4h-1.9V64.4z"/>
		<path id="XMLID_179_" class="st0" d="M83.6,64.4v1.7h-4.2v1.7h3.8v1.6h-3.8v1.7h4.3v1.7h-6.2v-8.4H83.6z"/>
		<path id="XMLID_181_" class="st0" d="M91.7,64.4h1.9v8.4h-1.9l-4-5.3v5.3h-1.9v-8.4h1.8l4.1,5.4V64.4z"/>
		<path id="XMLID_184_" class="st0" d="M100,71.2c0.9,0,1.7-0.4,2.3-1.1l1.2,1.2c-1,1.1-2.1,1.6-3.4,1.6s-2.4-0.4-3.2-1.2
			s-1.3-1.8-1.3-3.1c0-1.2,0.4-2.3,1.3-3.1c0.9-0.8,1.9-1.2,3.1-1.2c1.4,0,2.5,0.5,3.5,1.6l-1.2,1.3c-0.6-0.7-1.3-1.1-2.2-1.1
			c-0.7,0-1.3,0.2-1.8,0.7c-0.5,0.5-0.7,1.1-0.7,1.9s0.2,1.4,0.7,1.9C98.8,70.9,99.3,71.2,100,71.2z"/>
		<path id="XMLID_186_" class="st0" d="M111.5,64.4v1.7h-4.2v1.7h3.8v1.6h-3.8v1.7h4.3v1.7h-6.2v-8.4H111.5z"/>
		<path id="XMLID_189_" class="st0" d="M120.9,66.1v6.8h-1.9v-6.8h-2.4v-1.6h6.6v1.6H120.9z"/>
		<path id="XMLID_191_" class="st0" d="M131.2,64.4v1.7H127v1.7h3.8v1.6H127v1.7h4.3v1.7h-6.2v-8.4H131.2z"/>
		<path id="XMLID_201_" class="st0" d="M139.4,72.8l-0.8-1.8h-3.5l-0.8,1.8h-2l3.6-8.4h1.8l3.6,8.4H139.4z M136.9,66.9l-1.1,2.4h2.1
			L136.9,66.9z"/>
		<path id="XMLID_204_" class="st0" d="M146.7,71.2c0.9,0,1.7-0.4,2.3-1.1l1.2,1.2c-1,1.1-2.1,1.6-3.4,1.6s-2.4-0.4-3.2-1.2
			s-1.3-1.8-1.3-3.1c0-1.2,0.4-2.3,1.3-3.1c0.9-0.8,1.9-1.2,3.1-1.2c1.4,0,2.5,0.5,3.5,1.6l-1.2,1.3c-0.6-0.7-1.3-1.1-2.2-1.1
			c-0.7,0-1.3,0.2-1.8,0.7c-0.5,0.5-0.7,1.1-0.7,1.9s0.2,1.4,0.7,1.9C145.5,70.9,146.1,71.2,146.7,71.2z"/>
		<path id="XMLID_206_" class="st0" d="M157.3,64.4h1.9v8.4h-1.9v-3.3H154v3.3h-1.9v-8.4h1.9v3.5h3.3V64.4z"/>
		<path id="XMLID_208_" class="st0" d="M161.8,64.4h1.9v8.4h-1.9V64.4z"/>
		<path id="XMLID_210_" class="st0" d="M172,64.4h1.9v8.4H172l-4-5.3v5.3h-1.9v-8.4h1.8l4.1,5.4V64.4z"/>
		<path id="XMLID_212_" class="st0" d="M181.9,68.6h1.9v3c-0.8,0.9-2,1.4-3.5,1.4c-1.2,0-2.3-0.4-3.1-1.2c-0.8-0.8-1.3-1.8-1.3-3.1
			c0-1.2,0.4-2.3,1.3-3.1s1.9-1.2,3.1-1.2s2.2,0.4,3.1,1.2l-1,1.4c-0.4-0.3-0.7-0.6-1-0.7c-0.3-0.1-0.7-0.2-1-0.2
			c-0.7,0-1.3,0.2-1.8,0.7c-0.5,0.5-0.7,1.1-0.7,1.9c0,0.8,0.2,1.4,0.7,1.9c0.5,0.5,1,0.7,1.7,0.7s1.2-0.1,1.6-0.4V68.6z"/>
	</g>
	<g id="XMLID_128_">
		<g id="XMLID_132_">
			<g>
				<path id="XMLID_26_" class="st0" d="M169.2,51.9c-0.2,0-0.4,0-0.7,0c-1.3-0.1-2.5-0.9-3.5-2.2c-5.7-7.9-3.3-35.9-1.8-43.3
					c0.8-3.9,2.8-6.5,4.9-6.2c0.9,0.1,3,0.9,3,6.4c0,13.7-3.4,31.2-6.8,35.4c-0.1,0.1-0.1,0.1-0.2,0.2c0.5,2.8,1.3,5.2,2.4,6.7
					c0.7,0.9,1.4,1.4,2.2,1.5c1.4,0.2,2.9-0.4,4.5-1.7c5.8-4.8,10.5-17.7,10.8-21.6c0-0.5,0.5-0.8,0.9-0.8c0.5,0,0.8,0.5,0.8,0.9
					c-0.3,4.2-5.1,17.6-11.4,22.8C172.6,51.2,170.9,51.9,169.2,51.9z M167.8,1.8c-0.8,0-2.3,1.6-2.9,4.9c-1.2,5.9-2.6,21.9-1.2,32.8
					c2.7-5.2,5.7-20,5.7-33.1C169.4,3.2,168.5,1.9,167.8,1.8C167.9,1.8,167.9,1.8,167.8,1.8z"/>
			</g>
		</g>
		<path id="XMLID_129_" class="st0" d="M199,79.9c-1.1,0-3.1-0.5-3.6-4c-0.7-5.1,2.4-15.8,8.7-24.4c0.1-2.2,0.2-4.5,0.2-6.8
			c0.1-3.4,0.2-7,0.4-10.8c-2.2,8.1-6.2,18.8-13.3,18.8c-1.8,0-3.3-0.6-4.5-1.9c-3.7-3.8-3.3-12.6-3.1-19.6c0.1-1.5,0.1-3,0.1-4.3
			c0-0.5,0.4-0.9,0.9-0.9s0.9,0.4,0.9,0.9c0,1.3-0.1,2.8-0.1,4.3c-0.2,6.4-0.5,15.1,2.6,18.3c0.9,0.9,1.9,1.3,3.3,1.3
			c5.4,0,9.9-8.2,13.2-24.5c0.4-2.1,0.5-2.6,1.4-2.5c0.9,0.1,0.8,0.8,0.8,2.2c-0.3,6.6-0.5,13-0.7,18.6c0,1.5-0.1,3-0.1,4.4
			c3.9-4.6,8.7-8.4,14.3-10.1c0.5-0.1,0.9,0.1,1.1,0.6c0.1,0.5-0.1,1-0.6,1.1c-6,1.8-11.1,6.2-14.9,11.4
			C205.2,69.6,204.3,79.9,199,79.9z M204,54.9c-5,7.8-7.5,16.6-6.9,20.8c0.4,2.5,1.5,2.5,1.9,2.5C202.5,78.2,203.4,68.5,204,54.9z"
			/>
	</g>
	<g id="XMLID_118_">
		<path id="XMLID_126_" class="st0" d="M1.2,7.2c0-0.9,0.7-1.6,1.6-1.6h30.4c0.6,0,1,0.5,1,1v0c0,0.6-0.5,1-1,1H3.5v20.3h26.7
			c0.6,0,1,0.5,1,1v0c0,0.6-0.5,1-1,1H3.5v20.4c0,0.6-0.5,1-1,1H2.2c-0.6,0-1-0.5-1-1V7.2z"/>
		<path id="XMLID_123_" class="st0" d="M55.2,5.3L55.2,5.3c0.7,0,1.3,0.4,1.6,1L78,49.9c0.3,0.7-0.2,1.5-0.9,1.5h-0.2
			c-0.4,0-0.7-0.2-0.9-0.6L69.7,38H40.5l-6.2,12.8c-0.2,0.3-0.5,0.6-0.9,0.6h-0.1c-0.7,0-1.2-0.8-0.9-1.5L53.6,6.3
			C53.9,5.7,54.5,5.3,55.2,5.3z M68.7,36L55.1,7.9L41.5,36H68.7z"/>
		<path id="XMLID_121_" class="st0" d="M100.9,52c-3.7,0-7.1-0.6-10.2-1.9c-2.8-1.1-5.4-2.7-7.9-4.8c-0.4-0.4-0.5-1.1-0.1-1.5
			l0.1-0.2c0.4-0.4,1-0.4,1.4-0.1c2.3,2,4.7,3.5,7.3,4.5c2.8,1.2,6,1.7,9.4,1.7c2,0,3.9-0.2,5.5-0.8c1.7-0.5,3.1-1.2,4.3-2.1
			c1.2-0.9,2.1-2,2.7-3.2c0.6-1.2,0.9-2.5,0.9-4v-0.1c0-1.3-0.2-2.5-0.7-3.6c-0.5-1-1.2-2-2.3-2.8c-1.1-0.8-2.6-1.6-4.5-2.3
			c-1.9-0.7-4.3-1.3-7.1-1.9c-2.9-0.6-5.3-1.2-7.4-2c-2.1-0.7-3.7-1.6-5-2.6c-1.3-1-2.2-2.1-2.8-3.4c-0.6-1.3-0.9-2.8-0.9-4.4v-0.1
			c0-1.6,0.4-3.1,1.1-4.6c0.8-1.4,1.8-2.7,3.2-3.8c1.4-1.1,3-1.9,4.8-2.5C94.9,5.3,96.9,5,99.2,5c3.2,0,6.2,0.5,8.8,1.4
			c2.3,0.8,4.4,1.9,6.4,3.3c0.5,0.3,0.6,1,0.2,1.5l-0.1,0.2c-0.3,0.4-0.9,0.5-1.4,0.2c-4.2-3-8.9-4.5-14-4.5c-1.9,0-3.7,0.3-5.3,0.8
			c-1.6,0.5-3,1.2-4.1,2.1c-1.1,0.9-2,1.9-2.6,3.1c-0.6,1.2-0.9,2.4-0.9,3.6v0.1c0,1.3,0.2,2.5,0.7,3.5c0.5,1,1.2,2,2.3,2.8
			c1.1,0.8,2.6,1.6,4.5,2.3c1.9,0.7,4.3,1.3,7.2,1.9c2.9,0.6,5.4,1.2,7.5,2c2,0.8,3.7,1.6,5,2.6c1.3,1,2.2,2.1,2.7,3.4
			c0.6,1.3,0.8,2.7,0.8,4.3v0.1c0,1.8-0.4,3.4-1.1,4.9c-0.8,1.5-1.8,2.8-3.2,3.9c-1.4,1.1-3,2-5,2.6C105.5,51.7,103.3,52,100.9,52z"
			/>
		<path id="XMLID_119_" class="st0" d="M137,7.7h-15.8c-0.6,0-1-0.5-1-1v0c0-0.6,0.5-1,1-1h34c0.6,0,1,0.5,1,1v0c0,0.6-0.5,1-1,1
			h-15.9v42.7c0,0.6-0.5,1-1,1H138c-0.6,0-1-0.5-1-1V7.7z"/>
	</g>
</g>
</svg>
